<?xml version="1.0" encoding="utf-8"?>
<!-- Generator: Adobe Illustrator 20.0.0, SVG Export Plug-In . SVG Version: 6.00 Build 0)  -->
<svg version="1.1" id="Layer_1" xmlns="http://www.w3.org/2000/svg" xmlns:xlink="http://www.w3.org/1999/xlink" x="0px" y="0px"
	 viewBox="0 0 57.3333 73.746" style="enable-background:new 0 0 57.3333 73.746;" xml:space="preserve">
<style type="text/css">
	.st0{fill:#0070BB;}
	.st1{fill:none;}
	.st2{fill:#02BEE7;}
</style>
<g>
	<path class="st0" d="M36.2057,21.235c0,0.8282-0.8037,1.4976-1.7934,1.4976H11.3508c-0.9912,0-1.794-0.6694-1.794-1.4976l0,0
		c0-0.8266,0.8028-1.498,1.794-1.498h23.0615C35.402,19.737,36.2057,20.4084,36.2057,21.235L36.2057,21.235z"/>
	<path class="st0" d="M36.2057,28.5925c0,0.8281-0.8037,1.498-1.7934,1.498H11.3508c-0.9912,0-1.794-0.6699-1.794-1.498l0,0
		c0-0.8262,0.8028-1.4971,1.794-1.4971h23.0615C35.402,27.0954,36.2057,27.7663,36.2057,28.5925L36.2057,28.5925z"/>
	<path class="st0" d="M25.05,37.0739c0,0.8267-0.8027,1.4971-1.7935,1.4971H11.5734c-0.9902,0-1.7934-0.6704-1.7934-1.4971l0,0
		c0-0.8281,0.8032-1.498,1.7934-1.498h11.6831C24.2473,35.5759,25.05,36.2458,25.05,37.0739L25.05,37.0739z"/>
	<path class="st0" d="M30.405,45.1286c0,0.8272-0.8033,1.4971-1.7935,1.4971H11.5734c-0.9902,0-1.7934-0.6699-1.7934-1.4971l0,0
		c0-0.8271,0.8032-1.498,1.7934-1.498h17.0381C29.6017,43.6306,30.405,44.3015,30.405,45.1286L30.405,45.1286z"/>
	<path class="st0" d="M25.05,53.2785c0,0.8276-0.8027,1.4976-1.7935,1.4976H11.5734c-0.9902,0-1.7934-0.67-1.7934-1.4976l0,0
		c0-0.8271,0.8032-1.4976,1.7934-1.4976h11.6831C24.2473,51.7809,25.05,52.4514,25.05,53.2785L25.05,53.2785z"/>
	<path class="st1" d="M9.4328,14.1364H5.0314v53.9258h39.0025c0,0,0-1.5591,0-4.1055H9.4328V14.1364z"/>
	<path class="st1" d="M47.9011,20.0524c0,5.7691,0,25.9688,0,39.5318h4.5166c0,0,0-37.4087,0-45.0913
		c0-8.834-8.5435-8.834-8.5435-8.834H13.4167v4.1303h24.2212C37.6379,9.7892,47.9011,9.7892,47.9011,20.0524z"/>
	<path class="st0" d="M37.2053,14.1364c4.872,0.0889,7.0166,3.2339,6.8286,8.835c0,0,0,25.102,0,36.6128h3.8672
		c0-13.563,0-33.7627,0-39.5318c0-10.2632-10.2632-10.2632-10.2632-10.2632H9.4001v4.3472
		C9.4001,14.1364,32.905,14.1906,37.2053,14.1364z"/>
	<path class="st0" d="M44.0339,68.0622H5.0314V14.1364h4.4014V9.7892H1.0475v62.646h46.8536c0,0,0-8.0795,0-13.1635h-3.8672
		C44.0339,61.8176,44.0339,68.0622,44.0339,68.0622z"/>
	<path class="st2" d="M56.2858,11.5744c0-10.2637-10.2632-10.2637-10.2632-10.2637H9.4328v8.4785h3.9839V5.6589
		c0,0,27.0371-0.2061,30.4575,0c2.6055,0.1562,8.5435-0.2398,8.5435,8.834c0,7.6826,0,45.0913,0,45.0913h-4.5166
		c0,1.5551,0,3.0244,0,4.3725h8.3847C56.2858,63.9567,56.2858,20.4987,56.2858,11.5744z"/>
</g>
</svg>
