<?xml version="1.0" encoding="utf-8"?>
<!-- Generator: Adobe Illustrator 20.0.0, SVG Export Plug-In . SVG Version: 6.00 Build 0)  -->
<svg version="1.1" id="Layer_1" xmlns="http://www.w3.org/2000/svg" xmlns:xlink="http://www.w3.org/1999/xlink" x="0px" y="0px"
	 viewBox="0 0 86.9317 64.6756" style="enable-background:new 0 0 86.9317 64.6756;" xml:space="preserve">
<style type="text/css">
	.st0{fill:#0070BB;}
	.st1{fill:#02BEE7;}
</style>
<g>
	<path class="st0" d="M24.6825,62.6336L2.2645,40.0858c-2.6094-2.6241-3.0928-6.8033-0.7715-9.6226
		c2.6074-3.2075,7.4385-3.4014,10.2412-0.4858l17.7803,17.8837L74.833,2.2781c2.6093-2.625,6.7646-3.1108,9.5663-0.7773
		c3.1904,2.624,3.3828,7.4839,0.4835,10.3018l-50.3448,50.831C31.8338,65.3563,27.3875,65.3563,24.6825,62.6336z"/>
	<path class="st1" d="M26.0936,37.639L12.6229,24.0887c-1.5674-1.5772-1.8574-4.0884-0.4648-5.7827
		c1.5683-1.9278,4.4726-2.044,6.1552-0.291l10.6856,10.7456L56.2323,1.369c1.5674-1.5772,4.0644-1.8692,5.749-0.4673
		c1.917,1.5771,2.0332,4.497,0.291,6.1909L32.0174,37.639C30.3924,39.2737,27.7206,39.2737,26.0936,37.639z"/>
</g>
</svg>
