<?xml version="1.0" encoding="utf-8"?>
<!-- Generator: Adobe Illustrator 20.0.0, SVG Export Plug-In . SVG Version: 6.00 Build 0)  -->
<svg version="1.1" id="Layer_1" xmlns="http://www.w3.org/2000/svg" xmlns:xlink="http://www.w3.org/1999/xlink" x="0px" y="0px"
	 viewBox="345.60638 314.9487 178.77449 126.062" enable-background="new 345.60638 314.9487 178.77449 126.062"
	 xml:space="preserve">
<g>
	<g>
		<path fill="#274784" d="M524.38086,388.40619c0-14.7753-10.46875-27.54288-25.50388-31.8847
			c-0.15039-22.94919-20.58011-41.57278-45.66998-41.57278c-17.6152,0-33.53812,9.32281-41.08591,23.63629
			c-1.39062-0.21201-2.89841-0.35059-4.45221-0.35059c-12.08389,0-22.6709,6.70209-27.08881,16.72168
			c-19.42578,0.7597-34.97369,15.4765-34.97369,33.4501c0,18.46292,16.4024,33.4805,36.5538,33.4805H437.207
			c-1.07812-3.23441-1.66992-6.6904-1.66992-10.28708c0-0.01462,0.00101-0.02832,0.00101-0.043h-53.3779
			c-13.9942,0-25.375-10.39163-25.375-23.15042c0-12.7597,11.38669-23.14548,25.3808-23.14548h6.8887l1.02731-3.96481
			c1.93848-7.4971,9.168-12.7319,17.58688-12.7319c1.78812,0,3.91611,0.34619,6,0.9819l5.19049,1.58591l1.82611-4.7641
			c4.8331-12.61432,17.90631-21.0889,32.52151-21.0889c19.02249,0,34.49609,14.12259,34.49609,31.48099
			c0,1.0957-0.06641,2.17969-0.18362,3.24512l-0.53119,4.80557l5.14648,0.81061c12.21191,1.93359,21.0722,11.5137,21.0722,22.7851
			c0,8.58112-5.14838,16.08112-12.77539,20.07922c0.09769,1.0253,0.15143,2.06339,0.15143,3.1142
			c0,2.957-0.40143,5.81927-1.14163,8.543C513.91797,415.68549,524.38086,403.14841,524.38086,388.40619z"/>
	</g>
	<circle fill="#307DBD" cx="468.62814" cy="411.0791" r="29.93137"/>
	<path fill="#FFFFFF" d="M478.3252,412.94531l-1.57419-3.02933l-4.01474,1.12399c-0.67477-0.75388-1.44818-1.42178-2.32028-1.93057
		l0.4024-4.1651l-3.2413-1.02341l-2.06439,3.6387c-0.99121-0.0567-2.02151,0.0166-3.00882,0.24509l-2.6387-3.22559l-3.03018,1.57419
		l1.12302,4.01471c-0.75293,0.6748-1.41992,1.44919-1.92874,2.32031l-4.16498-0.40143l-1.02451,3.23932l3.6387,2.0654
		c-0.05472,0.9902,0.01761,2.02148,0.24509,3.00879l-3.2265,2.6387l1.57422,3.03021l4.01559-1.125
		c0.6748,0.75488,1.4483,1.4209,2.3194,1.93069l-0.4014,4.16409l3.24121,1.02441l2.06439-3.6387
		c0.9903,0.05469,2.02252-0.01761,3.00879-0.24319l2.63773,3.22458l3.03128-1.5751l-1.12311-4.0137
		c0.75302-0.67477,1.42001-1.44919,1.92972-2.32028l4.16409,0.40228l1.02438-3.24219l-3.63959-2.06351
		c0.0556-0.9921-0.01669-2.0224-0.2442-3.0097L478.3252,412.94531z M467.06927,422.14551
		c-2.2998,1.19528-5.1142,0.30569-6.30948-1.99612c-1.19632-2.29977-0.3067-5.1142,1.99307-6.3096
		c2.30081-1.1962,5.11533-0.30658,6.31061,1.99521C470.2598,418.1348,469.36908,420.94919,467.06927,422.14551z"/>
	<path fill="#FFFFFF" d="M486.50879,401.7236l-0.20901-1.9101l-2.33499-0.23053c-0.20111-0.53217-0.4697-1.03998-0.82321-1.48529
		l1.05862-2.10159l-1.49121-1.19919l-1.82422,1.4873c-0.50977-0.2305-1.06549-0.40332-1.62888-0.48541l-0.72662-2.22949
		l-1.91019,0.20798l-0.22949,2.33401c-0.5332,0.20319-1.04001,0.47269-1.48532,0.8252l-2.10349-1.05951l-1.1973,1.4902
		l1.4873,1.8252c-0.23242,0.5097-0.4043,1.06543-0.48532,1.62991l-2.23148,0.72562l0.20999,1.91107l2.3349,0.22751
		c0.2002,0.53522,0.46979,1.04401,0.8233,1.4873l-1.0596,2.1026l1.49118,1.19919l1.82422-1.48727
		c0.5098,0.23038,1.06549,0.40228,1.62802,0.48239l0.72748,2.23239l1.91309-0.20801l0.22852-2.33588
		c0.5322-0.20123,1.0401-0.4707,1.48441-0.8233l2.10449,1.0596l1.19528-1.49121l-1.48627-1.8252
		c0.23138-0.50879,0.40427-1.0654,0.48428-1.62891L486.50879,401.7236z M478.72748,404.25391
		c-1.45111,0.15918-2.74609-0.88181-2.9043-2.33301c-0.1582-1.4502,0.88089-2.74609,2.33401-2.9043
		c1.44919-0.1572,2.74509,0.88278,2.90329,2.33301C481.21878,402.8027,480.17767,404.09671,478.72748,404.25391z"/>
</g>
</svg>
