<svg id="Component_65_6" data-name="Component 65 – 6" xmlns="http://www.w3.org/2000/svg" width="20.846" height="20.846" viewBox="0 0 20.846 20.846">
  <g id="Group_916" data-name="Group 916" opacity="0.191">
    <path id="Path_985" data-name="Path 985" d="M20.846,10.423A10.425,10.425,0,0,1,10.423,20.846c-.352,0-.7-.017-1.04-.051A10.423,10.423,0,1,1,20.795,9.421,9.768,9.768,0,0,1,20.846,10.423Z" fill="#fff"/>
  </g>
  <g id="Group_920" data-name="Group 920" transform="translate(5.027 5.025)">
    <g id="Group_918" data-name="Group 918" transform="translate(0 3.336)">
      <path id="Path_987" data-name="Path 987" d="M13.818,23.167,12.586,24.4a1.5,1.5,0,0,1-2.088.045,1.481,1.481,0,0,1-.024-2.119l1.3-1.3.482-.482.365-.365a1.481,1.481,0,0,1,1.386-.392,1.514,1.514,0,0,1,.709.392,1.448,1.448,0,0,1,.361.6.113.113,0,0,0,.155.069c.1-.041.781-.7.781-.7a.115.115,0,0,0,.021-.134,2.629,2.629,0,0,0-.485-.664,2.657,2.657,0,0,0-.74-.523,2.571,2.571,0,0,0-.626-.206,2.691,2.691,0,0,0-1.7.227,2.635,2.635,0,0,0-.695.5l-.12.12-2,2a2.66,2.66,0,1,0,3.732,3.79l1.789-1.789a.115.115,0,0,0-.089-.2,3.263,3.263,0,0,1-1.166-.127A.112.112,0,0,0,13.818,23.167Z" transform="translate(-8.872 -18.568)" fill="#ccebff"/>
    </g>
    <g id="Group_919" data-name="Group 919" transform="translate(3.608)">
      <path id="Path_988" data-name="Path 988" d="M21.982,9.667l-1.761,1.761a.115.115,0,0,0,.089.2,3.263,3.263,0,0,1,1.166.127.113.113,0,0,0,.114-.028l1.231-1.231a1.5,1.5,0,0,1,2.088-.045,1.481,1.481,0,0,1,.024,2.119l-1.3,1.3-.482.482-.365.365a1.481,1.481,0,0,1-1.386.392,1.514,1.514,0,0,1-.709-.392,1.448,1.448,0,0,1-.361-.6.113.113,0,0,0-.155-.069c-.1.041-.781.7-.781.7a.115.115,0,0,0-.021.134,2.629,2.629,0,0,0,.485.664,2.657,2.657,0,0,0,.74.523,2.57,2.57,0,0,0,.626.206,2.692,2.692,0,0,0,1.7-.227,2.635,2.635,0,0,0,.695-.5l.12-.12L25.773,13.4a2.66,2.66,0,1,0-3.79-3.732Z" transform="translate(-19.362 -8.869)" fill="#ccebff"/>
    </g>
  </g>
</svg>
