<svg id="Group_4451" data-name="Group 4451" xmlns="http://www.w3.org/2000/svg" width="114.805" height="114.805" viewBox="0 0 114.805 114.805">
  <circle id="Ellipse_706" data-name="Ellipse 706" cx="57.402" cy="57.402" r="57.402" transform="translate(0)" fill="#d9f1fd"/>
  <g id="Group_4440" data-name="Group 4440" transform="translate(45.541 37.953)">
    <path id="Path_11344" data-name="Path 11344" d="M113.215,50.046l-.109,48.113-54.36,7.64.109-48.113Z" transform="translate(-58.746 -50.046)" fill="#2a9fc8"/>
  </g>
  <g id="Group_4441" data-name="Group 4441" transform="translate(14.556 28.742)">
    <path id="Path_11345" data-name="Path 11345" d="M54.869,56.5l-.109,48.115L23.772,87.755,23.88,39.65l11.883,6.461L42.9,49.989Z" transform="translate(-23.772 -39.65)" fill="#0a90b7"/>
  </g>
  <g id="Group_4442" data-name="Group 4442" transform="translate(14.666 21.098)">
    <path id="Path_11346" data-name="Path 11346" d="M54.88,55.516,23.9,38.661l54.36-7.64L109.24,47.876Z" transform="translate(-23.896 -31.021)" fill="#59b4d4"/>
  </g>
  <g id="Group_4443" data-name="Group 4443" transform="translate(14.556 28.742)" opacity="0.41" style="mix-blend-mode: multiply;isolation: isolate">
    <path id="Path_11347" data-name="Path 11347" d="M54.869,56.5l-.109,48.115L23.772,87.755,23.88,39.65l11.883,6.461L42.9,49.989Z" transform="translate(-23.772 -39.65)" fill="#0a90b7"/>
    <path id="Path_11348" data-name="Path 11348" d="M54.869,56.5l-.109,48.115L23.772,87.755,23.88,39.65l11.883,6.461L42.9,49.989Z" transform="translate(-23.772 -39.65)" fill="#0a90b7" style="mix-blend-mode: multiply;isolation: isolate"/>
  </g>
  <g id="Group_4444" data-name="Group 4444" transform="translate(26.518 36.852)">
    <path id="Path_11349" data-name="Path 11349" d="M44.437,52.683v12.1l-.515.247-.554-.871-.564.267-.554-.871-.564.267-.564-.871-.554.267L40,62.352l-.554.267-.564-.861-.554.267-.564-.871-.495.237L37.3,48.8Z" transform="translate(-37.274 -48.804)" fill="#0a90b7"/>
  </g>
  <g id="Group_4445" data-name="Group 4445" transform="translate(26.548 27.563)">
    <path id="Path_11350" data-name="Path 11350" d="M44.441,49.837l-7.134-3.878,54.36-7.64,7.026,3.822Z" transform="translate(-37.307 -38.319)" fill="#0a90b7"/>
  </g>
  <g id="Group_4446" data-name="Group 4446" transform="translate(49.4 51.126)">
    <path id="Path_11351" data-name="Path 11351" d="M99.623,69.754c-.049.006-.1.015-.144.023A9.97,9.97,0,0,0,89.2,65.028a13.337,13.337,0,0,0-7.06,3.395,8.017,8.017,0,0,0-3.885-.414,10.331,10.331,0,0,0-8.7,9.91,8.344,8.344,0,0,0,.159,1.553A8.893,8.893,0,0,0,63.1,87.8,6.372,6.372,0,0,0,70.6,94.249l27.049-3.76q.494-.069.975-.185.5-.02,1-.089a12.149,12.149,0,0,0,10.231-11.653A8.7,8.7,0,0,0,99.623,69.754Z" transform="translate(-63.102 -64.915)" fill="#fff"/>
    <path id="Path_11352" data-name="Path 11352" d="M106,71.191a9.192,9.192,0,0,1,1.34,4.874,12.148,12.148,0,0,1-10.23,11.653,9.633,9.633,0,0,1-4.07-.277,13.848,13.848,0,0,0,7.995-12.17A9.959,9.959,0,0,0,96.681,66.8a10.606,10.606,0,0,1,1.154,4.9A13.829,13.829,0,0,1,86.189,84.961a10.463,10.463,0,0,1-7.14-1.456,5.346,5.346,0,0,0,1.612-3.73,3.975,3.975,0,0,0-1.531-3.223,4,4,0,0,1,.656,2.246c0,2.481-1.924,4.93-5.519,5.431a4.476,4.476,0,0,1-1.443-.031,4.088,4.088,0,0,0,3.165.855,8.945,8.945,0,0,1-7.452,7.714,6.9,6.9,0,0,1-3.77-.493,6.5,6.5,0,0,0,6.018,2.19l29.027-4.035a12.149,12.149,0,0,0,10.231-11.653A8.728,8.728,0,0,0,106,71.191Z" transform="translate(-63.292 -65.13)" fill="#dbf2fd"/>
  </g>
  <g id="Group_4447" data-name="Group 4447" transform="translate(20.972 55.56)">
    <path id="Path_11353" data-name="Path 11353" d="M32.206,80.457a5.259,5.259,0,0,1-.88-1.626,5.907,5.907,0,0,1-.313-1.916V72.261a3.431,3.431,0,0,1,.313-1.591,1.287,1.287,0,0,1,.88-.718,1.962,1.962,0,0,1,1.3.25,4.027,4.027,0,0,1,1.3,1.066,5.14,5.14,0,0,1,.88,1.586,5.651,5.651,0,0,1,.313,1.876v.095a.178.178,0,0,1-.04.122.074.074,0,0,1-.1.015l-1.056-.472a.238.238,0,0,1-.1-.1.335.335,0,0,1-.039-.155v-.19a2.932,2.932,0,0,0-.323-1.368,1.966,1.966,0,0,0-.846-.887.707.707,0,0,0-.857.024,1.371,1.371,0,0,0-.323,1.04V77.71a2.882,2.882,0,0,0,.323,1.36,1.99,1.99,0,0,0,.857.885.707.707,0,0,0,.846-.022A1.341,1.341,0,0,0,34.68,78.9V78.7c0-.116.045-.151.136-.105l1.056.6a.214.214,0,0,1,.136.2v.127a3.392,3.392,0,0,1-.313,1.575,1.267,1.267,0,0,1-.88.711,2.02,2.02,0,0,1-1.3-.258A3.964,3.964,0,0,1,32.206,80.457Z" transform="translate(-31.014 -69.92)" fill="#1a4480"/>
    <path id="Path_11354" data-name="Path 11354" d="M39.444,84.167a4.824,4.824,0,0,1-.874-1.5,5.069,5.069,0,0,1-.307-1.746V80.5a.145.145,0,0,1,.04-.114.08.08,0,0,1,.1-.006l1.021.517a.233.233,0,0,1,.1.1.336.336,0,0,1,.04.155v.316a2.553,2.553,0,0,0,.34,1.28,2.157,2.157,0,0,0,.907.889q.522.264.812.031a1.042,1.042,0,0,0,.29-.85,2.149,2.149,0,0,0-.159-.817,4.088,4.088,0,0,0-.448-.8q-.29-.407-.9-1.161-.692-.841-1.112-1.458a6.4,6.4,0,0,1-.7-1.379,4.693,4.693,0,0,1-.284-1.648,2.127,2.127,0,0,1,.647-1.826,1.6,1.6,0,0,1,1.713.077,4.159,4.159,0,0,1,1.3,1.05,5.018,5.018,0,0,1,.88,1.546,5.288,5.288,0,0,1,.312,1.79v.333a.147.147,0,0,1-.04.114.079.079,0,0,1-.1.006l-1.033-.524a.226.226,0,0,1-.1-.1.334.334,0,0,1-.04-.155v-.3a2.706,2.706,0,0,0-.323-1.288,2.049,2.049,0,0,0-.89-.895.692.692,0,0,0-.766-.032,1.029,1.029,0,0,0-.278.849,2.178,2.178,0,0,0,.147.8,3.734,3.734,0,0,0,.449.8q.3.423.9,1.154.816,1.063,1.2,1.623a5.9,5.9,0,0,1,.652,1.273,4.394,4.394,0,0,1,.267,1.552,2.193,2.193,0,0,1-.67,1.869,1.65,1.65,0,0,1-1.793-.077A4.246,4.246,0,0,1,39.444,84.167Z" transform="translate(-31.841 -70.331)" fill="#1a4480"/>
    <path id="Path_11355" data-name="Path 11355" d="M46.66,87.8a5.289,5.289,0,0,1-.885-1.66,6.226,6.226,0,0,1-.313-1.971V79.7a3.685,3.685,0,0,1,.313-1.639,1.32,1.32,0,0,1,.885-.762,1.93,1.93,0,0,1,1.322.242,4.026,4.026,0,0,1,1.333,1.1,5.4,5.4,0,0,1,.891,1.663,6.129,6.129,0,0,1,.317,1.958V86.73a3.667,3.667,0,0,1-.317,1.652,1.347,1.347,0,0,1-.891.76,1.966,1.966,0,0,1-1.333-.249A4.015,4.015,0,0,1,46.66,87.8Zm2.213-.533a1.539,1.539,0,0,0,.334-1.121V81.549a3.261,3.261,0,0,0-.334-1.476,2.042,2.042,0,0,0-.891-.95.69.69,0,0,0-.874.056,1.587,1.587,0,0,0-.33,1.139V84.91a3.238,3.238,0,0,0,.33,1.457,2,2,0,0,0,.874.943A.712.712,0,0,0,48.873,87.262Z" transform="translate(-32.662 -70.757)" fill="#1a4480"/>
  </g>
  <g id="Group_4450" data-name="Group 4450" transform="translate(67.327 39.387)">
    <g id="Group_4448" data-name="Group 4448" transform="translate(1.898 15.312)">
      <path id="Path_11356" data-name="Path 11356" d="M95.309,92.532l-3.357-5.281L85.48,89.732l8.709-19.371,8.154,2.323Z" transform="translate(-85.48 -69.11)" fill="#a00a0f"/>
      <path id="Path_11357" data-name="Path 11357" d="M103.189,91.434l3.357-6.225,6.473.662-8.709-16.923-8.154,4.614Z" transform="translate(-86.697 -68.949)" fill="#a00a0f"/>
    </g>
    <path id="Path_11358" data-name="Path 11358" d="M113.454,64.621c0,1.272-1.843,2.544-2.156,3.761-.324,1.26.756,2.9.141,4.054-.624,1.165-2.726,1.419-3.6,2.417s-.834,3.094-1.912,3.869c-1.062.765-2.859-.063-4.073.431-1.174.478-2.186,2.464-3.458,2.643s-2.286-1.522-3.459-1.671c-1.214-.153-3.01,1.179-4.074.713s-1.037-2.579-1.911-3.331-2.977-.416-3.6-1.406.465-2.924.141-4.093c-.314-1.129-2.156-1.883-2.156-3.154s1.843-2.544,2.156-3.762c.324-1.259-.756-2.9-.141-4.053.624-1.166,2.726-1.42,3.6-2.418s.834-3.094,1.912-3.869c1.062-.765,2.859.064,4.073-.431,1.174-.478,2.186-2.464,3.459-2.643s2.285,1.522,3.458,1.671c1.214.154,3.01-1.179,4.074-.713s1.037,2.58,1.911,3.331,2.977.416,3.6,1.406-.465,2.924-.141,4.093C111.612,62.595,113.454,63.349,113.454,64.621Z" transform="translate(-83.337 -51.665)" fill="#c71f25"/>
    <g id="Group_4449" data-name="Group 4449" transform="translate(5.299 5.216)">
      <path id="Path_11359" data-name="Path 11359" d="M108.838,66.038a11.613,11.613,0,0,1-9.76,11.131,8.285,8.285,0,0,1-9.759-8.387,11.612,11.612,0,0,1,9.759-11.132,8.286,8.286,0,0,1,9.76,8.388" transform="translate(-89.318 -57.552)" fill="#eff9fe"/>
      <path id="Path_11360" data-name="Path 11360" d="M107.328,66.506A9.551,9.551,0,0,1,99.3,75.663a6.816,6.816,0,0,1-8.028-6.9A9.552,9.552,0,0,1,99.3,59.607a6.815,6.815,0,0,1,8.028,6.9" transform="translate(-89.541 -57.778)" fill="#fff"/>
    </g>
    <path id="Path_11361" data-name="Path 11361" d="M93.234,68.748a.338.338,0,0,1,.028-.47L94.9,66.6a.332.332,0,0,1,.467-.036l2.315,2.3a.312.312,0,0,0,.454-.049l5.572-6.32a.339.339,0,0,1,.468-.064l1.54,1.333a.33.33,0,0,1,0,.467L98,72.979a.312.312,0,0,1-.454.049Z" transform="translate(-84.457 -52.885)" fill="#c71f25"/>
  </g>
</svg>
