<svg xmlns="http://www.w3.org/2000/svg" width="115.508" height="114.805" viewBox="0 0 115.508 114.805">
  <g id="Group_4459" data-name="Group 4459" transform="translate(-219)">
    <circle id="Ellipse_707" data-name="Ellipse 707" cx="57.402" cy="57.402" r="57.402" transform="translate(219)" fill="#d9f1fd"/>
    <path id="path4212" d="M-86.443,80.913v4.774l-6.14,2.646V83.559Z" transform="translate(414.638 -15.614)" fill="#1a4480"/>
    <path id="path4218" d="M-127.231,80.913v4.774l6.139,2.646V83.559Z" transform="translate(418.59 -15.614)" fill="#1a4480"/>
    <path id="path4220" d="M-111.342,85.5v4.774h8.682V85.5Z" transform="translate(416.778 -16.137)" fill="#1a4480"/>
    <path id="path4342" d="M-133.7,104.211v7.645l-9.83,4.237v-7.644Z" transform="translate(420.449 -18.272)" fill="#1a4480"/>
    <path id="path4348" d="M-199.005,104.211v7.645l9.829,4.237v-7.644Z" transform="translate(426.777 -18.272)" fill="#1a4480"/>
    <path id="path4356" d="M-173.565,111.556V119.2h13.9v-7.644Z" transform="translate(423.875 -19.11)" fill="#1a4480"/>
    <g id="path4200" transform="translate(288.071 53.289)">
      <g id="Group_4452" data-name="Group 4452" transform="translate(0 3.189)" opacity="0.8" style="mix-blend-mode: multiply;isolation: isolate">
        <path id="Path_11362" data-name="Path 11362" d="M-109.836,70.957l-7.667,1.468-3.62,2.252-.393-.169-6.139,2.647,1.27.548-2.421,1.254v1.619h-2.137V84.32h4.213a7.062,7.062,0,0,0,2.054,2.137l-2.979,1.285,6.139,2.646,2.977-1.283a34.4,34.4,0,0,0,4.961.886V91.8h8.682V89.989a34.507,34.507,0,0,0,4.959-.885l2.979,1.284,6.14-2.646-2.976-1.283A7.07,7.07,0,0,0-91.74,84.32h4.209V80.576h-2.327l.074-2.794-1.478-.437.444-.19L-95.9,74.963l-.764-.777Zm.757,6.794a20.089,20.089,0,0,1,7.545,1.375c1.774.766,2.879,1.774,3.129,2.851l-1.407-.525A40.121,40.121,0,0,1-104.43,83.8h-6.585l-6.193-1.542-2.783-.532a5.227,5.227,0,0,1,3.049-2.6A20.323,20.323,0,0,1-109.078,77.751Z" transform="translate(130.942 -70.957)" fill="#d9f1fd"/>
      </g>
      <g id="Group_4453" data-name="Group 4453">
        <path id="Path_11363" data-name="Path 11363" d="M-109.836,67.357l-7.667,1.468-3.62,2.252-.393-.169-6.139,2.647,1.27.548-2.421,1.254v1.619h-2.137V80.72h4.213a7.062,7.062,0,0,0,2.054,2.137l-2.979,1.285,6.139,2.646,2.977-1.283a34.4,34.4,0,0,0,4.961.886V88.2h8.682V86.389a34.5,34.5,0,0,0,4.959-.885l2.979,1.284,6.14-2.646-2.976-1.283A7.07,7.07,0,0,0-91.74,80.72h4.209V76.976h-2.327l.074-2.794-1.478-.437.444-.19L-95.9,71.363l-.764-.777Zm.757,6.794a20.089,20.089,0,0,1,7.545,1.375c1.774.766,2.879,1.774,3.129,2.851l-1.407-.525A40.121,40.121,0,0,1-104.43,80.2h-6.585l-6.193-1.542-2.783-.532a5.228,5.228,0,0,1,3.049-2.6A20.323,20.323,0,0,1-109.078,74.151Z" transform="translate(130.942 -67.357)" fill="#c71f25"/>
      </g>
    </g>
    <path id="path4200-2" data-name="path4200" d="M-109.836,67.357l-7.667,1.468-3.62,2.252-.393-.169-6.139,2.647,1.27.548-2.421,1.254v1.619h-2.137V80.72h4.213a7.062,7.062,0,0,0,2.054,2.137l-2.979,1.285,6.139,2.646,2.977-1.283a34.4,34.4,0,0,0,4.961.886V88.2h8.682V86.389a34.5,34.5,0,0,0,4.959-.885l2.979,1.284,6.14-2.646-2.976-1.283A7.07,7.07,0,0,0-91.74,80.72h4.209V76.976h-2.327l.074-2.794-1.478-.437.444-.19L-95.9,71.363l-.764-.777Zm.757,6.794a20.089,20.089,0,0,1,7.545,1.375c1.774.766,2.879,1.774,3.129,2.851l-1.407-.525A40.121,40.121,0,0,1-104.43,80.2h-6.585l-6.193-1.542-2.783-.532a5.228,5.228,0,0,1,3.049-2.6A20.323,20.323,0,0,1-109.078,74.151Z" transform="translate(419.013 -14.068)" fill="#c71f25" style="mix-blend-mode: multiply;isolation: isolate"/>
    <path id="path4204" d="M-82.484,77.051v4.774h-4.209V77.051Z" transform="translate(413.966 -15.174)" fill="#d33d3d"/>
    <path id="path4208" d="M-86.406,68.964v5.1l-4.47.526-1.376-3.817Z" transform="translate(414.6 -14.251)" fill="#d33d3d"/>
    <path id="path4212-2" data-name="path4212" d="M-86.443,80.913v4.774l-6.14,2.646V83.559Z" transform="translate(414.638 -15.614)" fill="#c71f25"/>
    <path id="path4214" d="M-95.945,82.451v4.774l2.979,1.284V83.735Z" transform="translate(415.021 -15.79)" fill="#d33d3d"/>
    <path id="path4202" d="M-130.942,77.051v4.774h4.213V77.051Z" transform="translate(419.013 -15.174)" fill="#d33d3d"/>
    <path id="path4216" d="M-117.325,82.452v4.774l-2.977,1.283V83.735Z" transform="translate(417.8 -15.79)" fill="#d33d3d"/>
    <path id="path4218-2" data-name="path4218" d="M-127.231,80.913v4.774l6.139,2.646V83.559Z" transform="translate(418.59 -15.614)" fill="#c71f25"/>
    <path id="path4220-2" data-name="path4220" d="M-111.342,85.5v4.774h8.682V85.5Z" transform="translate(416.778 -16.137)" fill="#c71f25"/>
    <path id="path4210" d="M-113.578,64.376v1.816a34.358,34.358,0,0,0-4.959.886l-2.979-1.285-6.139,2.647,2.976,1.283a7.064,7.064,0,0,0-2.055,2.139h-4.208v3.743h4.213a7.062,7.062,0,0,0,2.054,2.137l-2.979,1.285,6.139,2.646,2.977-1.283a34.4,34.4,0,0,0,4.961.886V83.09h8.682V81.274a34.5,34.5,0,0,0,4.959-.885l2.979,1.284,6.14-2.646-2.976-1.283a7.07,7.07,0,0,0,2.054-2.139h4.209V71.862h-4.213A7.058,7.058,0,0,0-93.8,69.724l2.979-1.284-6.14-2.647-2.976,1.283a34.54,34.54,0,0,0-4.961-.886V64.376Zm4.5,4.661a20.089,20.089,0,0,1,7.545,1.375c4.254,1.835,4.254,4.809,0,6.643a22.254,22.254,0,0,1-15.408,0c-4.255-1.834-4.255-4.808,0-6.643A20.323,20.323,0,0,1-109.078,69.037Z" transform="translate(419.013 -13.728)" fill="#c71f25"/>
    <g id="path4180" transform="translate(222.508 66.711)">
      <g id="Group_4454" data-name="Group 4454" transform="translate(0 3.577)" opacity="0.8" style="mix-blend-mode: multiply;isolation: isolate">
        <path id="Path_11364" data-name="Path 11364" d="M-171.152,86.544l-12.275,2.349-5.8,3.607-.629-.271-9.829,4.237,2.034.877-3.877,2.008v2.593h-3.421v5.993h6.745a11.3,11.3,0,0,0,3.289,3.422l-4.77,2.056,9.829,4.237,4.765-2.054a55.066,55.066,0,0,0,7.943,1.418v2.906h13.9v-2.909a55.038,55.038,0,0,0,7.94-1.418l4.769,2.056,9.83-4.237-4.765-2.054a11.3,11.3,0,0,0,3.29-3.424h6.739v-5.993h-3.726l.117-4.473-2.365-.7.71-.307-8.138-3.508-1.223-1.244Zm1.213,10.878a32.158,32.158,0,0,1,12.081,2.2c2.84,1.227,4.61,2.839,5.011,4.564l-2.253-.841s-6.61,3.76-7.4,3.76h-10.543l-9.914-2.467-4.456-.851c.563-1.576,2.272-3.034,4.882-4.165A32.537,32.537,0,0,1-169.939,97.422Z" transform="translate(204.947 -86.544)" fill="#d9f1fd"/>
      </g>
      <g id="Group_4455" data-name="Group 4455">
        <path id="Path_11365" data-name="Path 11365" d="M-171.152,82.507l-12.275,2.349-5.8,3.607-.629-.271-9.829,4.237,2.034.877-3.877,2.008v2.593h-3.421V103.9h6.745a11.3,11.3,0,0,0,3.289,3.422l-4.77,2.056,9.829,4.237,4.765-2.054a55.066,55.066,0,0,0,7.943,1.418v2.9h13.9v-2.908a55.159,55.159,0,0,0,7.94-1.417l4.769,2.056,9.83-4.237-4.765-2.054a11.3,11.3,0,0,0,3.29-3.424h6.739V97.908h-3.726l.117-4.473-2.365-.7.71-.307-8.138-3.508-1.223-1.244Zm1.213,10.878a32.157,32.157,0,0,1,12.081,2.2c2.84,1.227,4.61,2.839,5.011,4.564l-2.253-.842s-6.61,3.761-7.4,3.761h-10.543l-9.914-2.468-4.456-.85c.563-1.576,2.272-3.035,4.882-4.165A32.537,32.537,0,0,1-169.939,93.385Z" transform="translate(204.947 -82.507)" fill="#d9f1fd"/>
      </g>
    </g>
    <path id="path4180-2" data-name="path4180" d="M-171.152,82.507l-12.275,2.349-5.8,3.607-.629-.271-9.829,4.237,2.034.877-3.877,2.008v2.593h-3.421V103.9h6.745a11.3,11.3,0,0,0,3.289,3.422l-4.77,2.056,9.829,4.237,4.765-2.054a55.066,55.066,0,0,0,7.943,1.418v2.9h13.9v-2.908a55.159,55.159,0,0,0,7.94-1.417l4.769,2.056,9.83-4.237-4.765-2.054a11.3,11.3,0,0,0,3.29-3.424h6.739V97.908h-3.726l.117-4.473-2.365-.7.71-.307-8.138-3.508-1.223-1.244Zm1.213,10.878a32.157,32.157,0,0,1,12.081,2.2c2.84,1.227,4.61,2.839,5.011,4.564l-2.253-.842s-6.61,3.761-7.4,3.761h-10.543l-9.914-2.468-4.456-.85c.563-1.576,2.272-3.035,4.882-4.165A32.537,32.537,0,0,1-169.939,93.385Z" transform="translate(427.455 -15.796)" fill="#c71f25" style="mix-blend-mode: multiply;isolation: isolate"/>
    <path id="path4338" d="M-204.947,98.027v7.645h6.745V98.027Z" transform="translate(427.455 -17.566)" fill="#d33d3d"/>
    <path id="path4340" d="M-127.359,98.027v7.645H-134.1V98.027Z" transform="translate(419.373 -17.566)" fill="#d33d3d"/>
    <path id="path4358" d="M-199.005,85.079v7.644l6.244-2.691,6.342-2.6Z" transform="translate(426.777 -16.089)" fill="#d33d3d"/>
    <path id="path4360" d="M-133.638,85.079v8.159l-7.157.843-2.2-6.11Z" transform="translate(420.389 -16.089)" fill="#d33d3d"/>
    <path id="path4319" d="M-177.145,77.734v2.908a55.144,55.144,0,0,0-7.939,1.418L-189.853,80l-9.829,4.237,4.765,2.054a11.314,11.314,0,0,0-3.29,3.425h-6.738v5.992h6.745a11.3,11.3,0,0,0,3.289,3.423l-4.77,2.055,9.829,4.238,4.765-2.054a55.187,55.187,0,0,0,7.943,1.418v2.9h13.9V104.79a55.16,55.16,0,0,0,7.94-1.417l4.769,2.056,9.83-4.238-4.765-2.054a11.314,11.314,0,0,0,3.29-3.425h6.739V89.72h-6.745a11.3,11.3,0,0,0-3.289-3.422l4.77-2.056L-150.535,80l-4.765,2.054a55.2,55.2,0,0,0-7.944-1.418v-2.9Zm7.205,7.462a32.157,32.157,0,0,1,12.081,2.2c6.813,2.937,6.813,7.7,0,10.635s-17.858,2.938-24.671,0-6.813-7.7,0-10.636A32.536,32.536,0,0,1-169.939,85.2Z" transform="translate(427.455 -15.252)" fill="#c71f25"/>
    <path id="path4342-2" data-name="path4342" d="M-133.7,104.211v7.645l-9.83,4.237v-7.644Z" transform="translate(420.449 -18.272)" fill="#c71f25"/>
    <path id="path4344" d="M-148.912,106.674v7.644l4.769,2.056V108.73Z" transform="translate(421.063 -18.553)" fill="#d33d3d"/>
    <path id="path4346" d="M-183.145,106.676v7.644l-4.765,2.054V108.73Z" transform="translate(425.512 -18.553)" fill="#d33d3d"/>
    <path id="path4348-2" data-name="path4348" d="M-199.005,104.211v7.645l9.829,4.237v-7.644Z" transform="translate(426.777 -18.272)" fill="#c71f25"/>
    <path id="path4356-2" data-name="path4356" d="M-173.565,111.556V119.2h13.9v-7.644Z" transform="translate(423.875 -19.11)" fill="#c71f25"/>
    <path id="Path_11366" data-name="Path 11366" d="M-89.656,56.361h-32.877l6.11-11.893-6.11-11.893h32.877l6.11,11.893Z" transform="translate(418.054 -10.1)" fill="#4baed1"/>
    <g id="Group_4456" data-name="Group 4456" transform="translate(295.522 34.368)" opacity="0.63" style="mix-blend-mode: multiply;isolation: isolate">
      <path id="Path_11367" data-name="Path 11367" d="M-116.422,46l-6.11,11.893h32.877L-83.546,46Z" transform="translate(122.532 -45.999)" fill="#0a90b7"/>
    </g>
    <path id="Path_11368" data-name="Path 11368" d="M-132.843,56.361h-32.877l6.11-11.893-6.11-11.893h32.877l6.11,11.893Z" transform="translate(422.98 -10.1)" fill="#4baed1"/>
    <g id="Group_4457" data-name="Group 4457" transform="translate(257.261 34.368)" opacity="0.63" style="mix-blend-mode: multiply;isolation: isolate">
      <path id="Path_11369" data-name="Path 11369" d="M-159.61,46l-6.11,11.893h32.877L-126.733,46Z" transform="translate(165.719 -45.999)" fill="#0a90b7"/>
    </g>
    <path id="Path_11370" data-name="Path 11370" d="M-176.03,56.361h-32.877l6.11-11.893-6.11-11.893h32.877l6.11,11.893Z" transform="translate(427.907 -10.1)" fill="#4baed1"/>
    <g id="Group_4458" data-name="Group 4458" transform="translate(219 34.368)" opacity="0.63" style="mix-blend-mode: multiply;isolation: isolate">
      <path id="Path_11371" data-name="Path 11371" d="M-202.8,46l-6.11,11.893h32.877L-169.92,46Z" transform="translate(208.907 -45.999)" fill="#0a90b7"/>
    </g>
  </g>
</svg>
