<svg id="Group_4479" data-name="Group 4479" xmlns="http://www.w3.org/2000/svg" width="114.805" height="114.805" viewBox="0 0 114.805 114.805">
  <circle id="Ellipse_708" data-name="Ellipse 708" cx="57.402" cy="57.402" r="57.402" fill="#d9f1fd"/>
  <g id="Group_4476" data-name="Group 4476" transform="translate(2.878 69.149)">
    <path id="Path_11372" data-name="Path 11372" d="M-365.608,88.086l53.443,21.016-56.22,20.628-51.995-25.362Z" transform="translate(421.215 -85.581)" fill="#d9f1fd" style="mix-blend-mode: multiply;isolation: isolate"/>
    <path id="Path_11373" data-name="Path 11373" d="M-366.551,85.258l53.443,21.016-56.22,20.628-51.995-25.362Z" transform="translate(421.322 -85.258)" fill="#fff"/>
    <path id="Path_11374" data-name="Path 11374" d="M-363.024,85.258l53.443,21.016-28.108,10.31L-390.408,93.4Z" transform="translate(417.796 -85.258)" fill="#d9f1fd" opacity="0.2"/>
    <g id="Group_4475" data-name="Group 4475" transform="translate(12.405 5.603)">
      <g id="Group_4464" data-name="Group 4464">
        <g id="Group_4460" data-name="Group 4460" transform="translate(0 5.066)">
          <path id="Path_11375" data-name="Path 11375" d="M-384.811,97.893l-21.176,6.505-1.333-.635,21.162-6.462Z" transform="translate(407.32 -97.3)" fill="#d9f1fd"/>
        </g>
        <g id="Group_4461" data-name="Group 4461" transform="translate(3.376)">
          <path id="Path_11376" data-name="Path 11376" d="M-359.754,92.132l-42.423,13.222-1.333-.635,42.395-13.137Z" transform="translate(403.51 -91.582)" fill="#d9f1fd"/>
        </g>
        <g id="Group_4462" data-name="Group 4462" transform="translate(6.66 1.354)">
          <path id="Path_11377" data-name="Path 11377" d="M-355.976,93.661l-42.494,13.433-1.333-.635,42.465-13.348Z" transform="translate(399.802 -93.111)" fill="#d9f1fd"/>
        </g>
        <g id="Group_4463" data-name="Group 4463" transform="translate(9.944 2.708)">
          <path id="Path_11378" data-name="Path 11378" d="M-352.2,95.189l-42.564,13.644-1.333-.635L-353.56,94.64Z" transform="translate(396.095 -94.64)" fill="#d9f1fd"/>
        </g>
      </g>
      <g id="Group_4469" data-name="Group 4469" transform="translate(14.58 6.01)">
        <g id="Group_4465" data-name="Group 4465" transform="translate(0 5.534)">
          <path id="Path_11379" data-name="Path 11379" d="M-368.2,105.206l-21.332,6.973-1.333-.635,21.318-6.93Z" transform="translate(390.863 -104.614)" fill="#d9f1fd"/>
        </g>
        <g id="Group_4466" data-name="Group 4466" transform="translate(3.376)">
          <path id="Path_11380" data-name="Path 11380" d="M-342.985,98.916l-42.735,14.158-1.333-.635,42.707-14.073Z" transform="translate(387.053 -98.367)" fill="#d9f1fd"/>
        </g>
        <g id="Group_4467" data-name="Group 4467" transform="translate(6.661 1.354)">
          <path id="Path_11381" data-name="Path 11381" d="M-339.206,100.444l-42.805,14.369-1.333-.635,42.777-14.284Z" transform="translate(383.345 -99.894)" fill="#d9f1fd"/>
        </g>
        <g id="Group_4468" data-name="Group 4468" transform="translate(9.945 2.707)">
          <path id="Path_11382" data-name="Path 11382" d="M-335.428,101.971l-42.876,14.58-1.333-.635,42.847-14.494Z" transform="translate(379.637 -101.422)" fill="#d9f1fd"/>
        </g>
      </g>
      <g id="Group_4474" data-name="Group 4474" transform="translate(29.161 12.017)">
        <g id="Group_4470" data-name="Group 4470" transform="translate(0 6.003)">
          <path id="Path_11383" data-name="Path 11383" d="M-351.583,112.515l-21.488,7.441-1.333-.635,21.474-7.4Z" transform="translate(374.405 -111.923)" fill="#d9f1fd"/>
        </g>
        <g id="Group_4471" data-name="Group 4471" transform="translate(3.376)">
          <path id="Path_11384" data-name="Path 11384" d="M-326.214,105.7l-43.047,15.094-1.333-.634,43.018-15.009Z" transform="translate(370.594 -105.146)" fill="#d9f1fd"/>
        </g>
        <g id="Group_4472" data-name="Group 4472" transform="translate(6.661 1.353)">
          <path id="Path_11385" data-name="Path 11385" d="M-322.435,107.222l-43.117,15.305-1.333-.634,43.089-15.219Z" transform="translate(366.886 -106.673)" fill="#d9f1fd"/>
        </g>
        <g id="Group_4473" data-name="Group 4473" transform="translate(9.946 2.705)">
          <path id="Path_11386" data-name="Path 11386" d="M-318.657,108.748l-43.187,15.516-1.333-.634,43.159-15.43Z" transform="translate(363.178 -108.2)" fill="#d9f1fd"/>
        </g>
      </g>
    </g>
  </g>
  <path id="Path_11387" data-name="Path 11387" d="M-340.427,104c-1.38-4.645-13.149-8.014-26.286-7.526s-22.667,4.649-21.286,9.293,13.15,8.015,26.286,7.527S-339.047,108.65-340.427,104Zm-9.59-2.056-16.518,7.167a1.787,1.787,0,0,1-1.088.028l-11.544-3.748c-.323-.1-.344-.283-.049-.4l3.553-1.369a1.965,1.965,0,0,1,1.122-.017l6.2,2.013a1.794,1.794,0,0,0,1.088-.028l11.934-5.177a1.935,1.935,0,0,1,1.118-.04l4.073,1.173C-349.792,101.651-349.741,101.829-350.017,101.949Z" transform="translate(420.414 -17.384)" fill="#c71f25"/>
  <g id="Group_4478" data-name="Group 4478" transform="translate(25.609 7.171)">
    <path id="Path_11388" data-name="Path 11388" d="M-332.528,80.855-392.8,75.171l8.489-8.318a4.321,4.321,0,0,1,3.432-1.216l38.427,3.623a4.324,4.324,0,0,1,3.144,1.837Z" transform="translate(395.338 -21.041)" fill="#0a90b7"/>
    <path id="Path_11389" data-name="Path 11389" d="M-332.528,80.855-392.8,75.171l8.489-8.318a4.321,4.321,0,0,1,3.432-1.216l38.427,3.623a4.324,4.324,0,0,1,3.144,1.837Z" transform="translate(395.338 -21.041)" fill="#0a90b7" opacity="0.52" style="mix-blend-mode: multiply;isolation: isolate"/>
    <path id="Path_11390" data-name="Path 11390" d="M-356.765,73.97c.311.008,24.741,2.334,24.741,2.334l-2.141-3.031-17.48-1.648Z" transform="translate(391.227 -21.726)" fill="#0a90b7" opacity="0.82" style="mix-blend-mode: multiply;isolation: isolate"/>
    <g id="Group_4477" data-name="Group 4477" transform="translate(21.465)">
      <path id="Path_11391" data-name="Path 11391" d="M-345.25,40.835a25.069,25.069,0,0,0-6.59,14.854l-.966,10.245c-.089.943-2.042,1.568-4.7,1.618a19.544,19.544,0,0,1-2.269-.089,20.47,20.47,0,0,1-2.172-.322,13.725,13.725,0,0,1-2.233-.645c-1.377-.522-2.216-1.184-2.154-1.838l1.016-10.783a24.653,24.653,0,0,0-3.82-15.393,15.1,15.1,0,0,1-2.229-9.454,15.132,15.132,0,0,1,6.07-10.757,13.669,13.669,0,0,1,1.65-1.054c.159-.093.326-.178.492-.262h.009a15.048,15.048,0,0,1,10.019-1.324c.172.033.344.074.507.114a14.684,14.684,0,0,1,5.607,2.731c.149.105.295.229.442.351a14.354,14.354,0,0,1,1.417,1.351,15.113,15.113,0,0,1,4.027,10.291A15.111,15.111,0,0,1-345.25,40.835Z" transform="translate(371.436 -15.301)" fill="#0a90b7"/>
    </g>
    <rect id="Rectangle_2954" data-name="Rectangle 2954" width="60.545" height="12.015" transform="translate(2.533 54.13) rotate(5.387)" fill="#0a90b7"/>
    <ellipse id="Ellipse_709" data-name="Ellipse 709" cx="5.918" cy="2.232" rx="5.918" ry="2.232" transform="translate(23.689 19.387) rotate(-84.613)" fill="#dff3fd"/>
    <path id="Path_11392" data-name="Path 11392" d="M-359.4,54.334l-1.614,17.117a13.724,13.724,0,0,1-2.233-.645l1.573-16.687a1.142,1.142,0,0,1,1.241-1.035A1.149,1.149,0,0,1-359.4,54.334Z" transform="translate(391.967 -19.611)" fill="#dff3fd"/>
    <path id="Rectangle_2955" data-name="Rectangle 2955" d="M1.454,0h0A1.454,1.454,0,0,1,2.907,1.454v8.1a0,0,0,0,1,0,0H0a0,0,0,0,1,0,0v-8.1A1.454,1.454,0,0,1,1.454,0Z" transform="matrix(0.996, 0.094, -0.094, 0.996, 3.835, 56.308)" fill="#dff3fd"/>
    <rect id="Rectangle_2956" data-name="Rectangle 2956" width="62.682" height="4.786" rx="1.178" transform="translate(0.449 64.845) rotate(5.387)" fill="#1a4480"/>
    <path id="Path_11393" data-name="Path 11393" d="M-345.946,18.477c-.672,1.029-4.142,1.545-8.252,1.157s-7.421-1.542-7.881-2.678a15.048,15.048,0,0,1,10.019-1.324A14.647,14.647,0,0,1-345.946,18.477Z" transform="translate(391.833 -15.301)" fill="#fff"/>
    <path id="Path_11394" data-name="Path 11394" d="M-343.124,41.161a25.069,25.069,0,0,0-6.59,14.854l-.966,10.245c-.057.6-.859,1.062-2.113,1.345l.992-10.519a38,38,0,0,1,5.226-16.409,23.2,23.2,0,0,0,3.314-11.434,20.712,20.712,0,0,0-2.5-11.064c0-.008-.008-.009-.007-.018.307.2.6.416.882.642.149.105.3.229.442.351a14.35,14.35,0,0,1,1.417,1.351A15.113,15.113,0,0,1-339,30.8,15.111,15.111,0,0,1-343.124,41.161Z" transform="translate(390.774 -15.628)" fill="#d9f1fd" opacity="0.6" style="mix-blend-mode: multiply;isolation: isolate"/>
  </g>
</svg>
