<?xml version="1.0" encoding="utf-8"?>
<!-- Generator: Adobe Illustrator 24.0.3, SVG Export Plug-In . SVG Version: 6.00 Build 0)  -->
<svg version="1.1" id="Layer_1" xmlns="http://www.w3.org/2000/svg" xmlns:xlink="http://www.w3.org/1999/xlink" x="0px" y="0px"
	 viewBox="0 0 171.5 171.5" style="enable-background:new 0 0 171.5 171.5;" xml:space="preserve">
<style type="text/css">
	.st0{fill:#FFFFFF;}
	.st1{clip-path:url(#SVGID_2_);fill:#112E51;}
	.st2{clip-path:url(#SVGID_2_);fill:#122F52;}
	.st3{clip-path:url(#SVGID_2_);fill:#123053;}
	.st4{clip-path:url(#SVGID_2_);fill:#123054;}
	.st5{clip-path:url(#SVGID_2_);fill:#133154;}
	.st6{clip-path:url(#SVGID_2_);fill:#133155;}
	.st7{clip-path:url(#SVGID_2_);fill:#133256;}
	.st8{clip-path:url(#SVGID_2_);fill:#143257;}
	.st9{clip-path:url(#SVGID_2_);fill:#143358;}
	.st10{clip-path:url(#SVGID_2_);fill:#143459;}
	.st11{clip-path:url(#SVGID_2_);fill:#14345A;}
	.st12{clip-path:url(#SVGID_2_);fill:#15355B;}
	.st13{clip-path:url(#SVGID_2_);fill:#15355C;}
	.st14{clip-path:url(#SVGID_2_);fill:#15365D;}
	.st15{clip-path:url(#SVGID_2_);fill:#16365D;}
	.st16{clip-path:url(#SVGID_2_);fill:#16375E;}
	.st17{clip-path:url(#SVGID_2_);fill:#16375F;}
	.st18{clip-path:url(#SVGID_2_);fill:#163860;}
	.st19{clip-path:url(#SVGID_2_);fill:#173860;}
	.st20{clip-path:url(#SVGID_2_);fill:#173961;}
	.st21{clip-path:url(#SVGID_2_);fill:#173962;}
	.st22{clip-path:url(#SVGID_2_);fill:#173963;}
	.st23{clip-path:url(#SVGID_2_);fill:#173A63;}
	.st24{clip-path:url(#SVGID_2_);fill:#183A64;}
	.st25{clip-path:url(#SVGID_2_);fill:#183B65;}
	.st26{clip-path:url(#SVGID_2_);fill:#183C66;}
	.st27{clip-path:url(#SVGID_2_);fill:#183C67;}
	.st28{clip-path:url(#SVGID_2_);fill:#193C68;}
	.st29{clip-path:url(#SVGID_2_);fill:#193D68;}
	.st30{clip-path:url(#SVGID_2_);fill:#193D69;}
	.st31{clip-path:url(#SVGID_2_);fill:#193E6A;}
	.st32{clip-path:url(#SVGID_2_);fill:#193E6B;}
	.st33{clip-path:url(#SVGID_2_);fill:#1A3F6B;}
	.st34{clip-path:url(#SVGID_2_);fill:#1A3F6C;}
	.st35{clip-path:url(#SVGID_2_);fill:#1A3F6D;}
	.st36{clip-path:url(#SVGID_2_);fill:#1A406E;}
	.st37{clip-path:url(#SVGID_2_);fill:#1A416F;}
	.st38{clip-path:url(#SVGID_2_);fill:#1B4170;}
	.st39{clip-path:url(#SVGID_2_);fill:#1B4270;}
	.st40{clip-path:url(#SVGID_2_);fill:#1B4271;}
	.st41{clip-path:url(#SVGID_2_);fill:#1B4272;}
	.st42{clip-path:url(#SVGID_2_);fill:#1B4373;}
	.st43{clip-path:url(#SVGID_2_);fill:#1C4474;}
	.st44{clip-path:url(#SVGID_2_);fill:#1C4475;}
	.st45{clip-path:url(#SVGID_2_);fill:#1C4576;}
	.st46{clip-path:url(#SVGID_2_);fill:#1C4577;}
	.st47{clip-path:url(#SVGID_2_);fill:#1C4678;}
	.st48{clip-path:url(#SVGID_2_);fill:#1C4679;}
	.st49{clip-path:url(#SVGID_2_);fill:#1D477A;}
	.st50{clip-path:url(#SVGID_2_);fill:#1D487B;}
	.st51{clip-path:url(#SVGID_2_);fill:#1D487C;}
	.st52{clip-path:url(#SVGID_2_);fill:#1D487D;}
	.st53{clip-path:url(#SVGID_2_);fill:#1D497D;}
	.st54{clip-path:url(#SVGID_2_);fill:#1D497E;}
	.st55{clip-path:url(#SVGID_2_);fill:#1E4A7F;}
	.st56{clip-path:url(#SVGID_2_);fill:#1E4A80;}
	.st57{clip-path:url(#SVGID_2_);fill:#1E4B80;}
	.st58{clip-path:url(#SVGID_2_);fill:#1E4B81;}
	.st59{clip-path:url(#SVGID_2_);fill:#1E4B82;}
	.st60{clip-path:url(#SVGID_2_);fill:#1E4C83;}
	.st61{clip-path:url(#SVGID_2_);fill:#1E4C84;}
	.st62{clip-path:url(#SVGID_2_);fill:#1E4D84;}
	.st63{clip-path:url(#SVGID_2_);fill:#1E4D85;}
	.st64{clip-path:url(#SVGID_2_);fill:#1E4E86;}
	.st65{clip-path:url(#SVGID_2_);fill:#1F4E87;}
	.st66{clip-path:url(#SVGID_2_);fill:#1F4E88;}
	.st67{clip-path:url(#SVGID_2_);fill:#1F4F88;}
	.st68{clip-path:url(#SVGID_2_);fill:#1F4F89;}
	.st69{clip-path:url(#SVGID_2_);fill:#1F508A;}
	.st70{clip-path:url(#SVGID_2_);fill:#1F508B;}
	.st71{clip-path:url(#SVGID_2_);fill:#1F518C;}
	.st72{clip-path:url(#SVGID_2_);fill:#1F518D;}
	.st73{clip-path:url(#SVGID_2_);fill:#1F528E;}
	.st74{clip-path:url(#SVGID_2_);fill:#1F528F;}
	.st75{clip-path:url(#SVGID_2_);fill:#205390;}
	.st76{clip-path:url(#SVGID_2_);fill:#205391;}
	.st77{clip-path:url(#SVGID_2_);fill:#205492;}
	.st78{clip-path:url(#SVGID_2_);fill:#205593;}
	.st79{clip-path:url(#SVGID_2_);fill:#205594;}
</style>
<g>
	<g>
		<path class="st0" d="M6,165.5h159.5V6H6V165.5z"/>
	</g>
	<g>
		<g>
			<defs>
				<rect id="SVGID_1_" x="5.7" y="6.3" width="159.6" height="159.6"/>
			</defs>
			<clipPath id="SVGID_2_">
				<use xlink:href="#SVGID_1_"  style="overflow:visible;"/>
			</clipPath>
			<rect x="5.7" y="6.3" class="st1" width="159.6" height="159.6"/>
			<circle class="st1" cx="85.5" cy="86.1" r="79.8"/>
			<circle class="st1" cx="85.5" cy="86.1" r="75.7"/>
			<circle class="st1" cx="85.5" cy="86.1" r="71.5"/>
			<circle class="st2" cx="85.5" cy="86.1" r="70.7"/>
			<circle class="st2" cx="85.5" cy="86.1" r="69.9"/>
			<circle class="st3" cx="85.5" cy="86.1" r="69.1"/>
			<circle class="st4" cx="85.5" cy="86.1" r="68.4"/>
			<circle class="st5" cx="85.5" cy="86.1" r="67.6"/>
			<circle class="st6" cx="85.5" cy="86.1" r="66.8"/>
			<circle class="st7" cx="85.5" cy="86.1" r="66"/>
			<circle class="st7" cx="85.5" cy="86.1" r="65.2"/>
			<circle class="st8" cx="85.5" cy="86.1" r="64.4"/>
			<circle class="st9" cx="85.5" cy="86.1" r="63.6"/>
			<circle class="st9" cx="85.5" cy="86.1" r="62.8"/>
			<circle class="st10" cx="85.5" cy="86.1" r="62"/>
			<circle class="st11" cx="85.5" cy="86.1" r="61.2"/>
			<circle class="st12" cx="85.5" cy="86.1" r="60.4"/>
			<circle class="st12" cx="85.5" cy="86.1" r="59.6"/>
			<circle class="st13" cx="85.5" cy="86.1" r="58.8"/>
			<circle class="st14" cx="85.5" cy="86.1" r="58"/>
			<circle class="st15" cx="85.5" cy="86.1" r="57.2"/>
			<circle class="st16" cx="85.5" cy="86.1" r="56.4"/>
			<circle class="st17" cx="85.5" cy="86.1" r="55.6"/>
			<circle class="st18" cx="85.5" cy="86.1" r="54.8"/>
			<circle class="st19" cx="85.5" cy="86.1" r="54"/>
			<circle class="st20" cx="85.5" cy="86.1" r="53.3"/>
			<circle class="st21" cx="85.5" cy="86.1" r="52.5"/>
			<circle class="st22" cx="85.5" cy="86.1" r="51.7"/>
			<circle class="st23" cx="85.5" cy="86.1" r="50.9"/>
			<circle class="st24" cx="85.5" cy="86.1" r="50.1"/>
			<circle class="st25" cx="85.5" cy="86.1" r="49.3"/>
			<circle class="st25" cx="85.5" cy="86.1" r="48.5"/>
			<circle class="st26" cx="85.5" cy="86.1" r="47.7"/>
			<circle class="st27" cx="85.5" cy="86.1" r="46.9"/>
			<circle class="st28" cx="85.5" cy="86.1" r="46.1"/>
			<circle class="st29" cx="85.5" cy="86.1" r="45.3"/>
			<circle class="st30" cx="85.5" cy="86.1" r="44.5"/>
			<circle class="st31" cx="85.5" cy="86.1" r="43.7"/>
			<circle class="st32" cx="85.5" cy="86.1" r="42.9"/>
			<circle class="st33" cx="85.5" cy="86.1" r="42.1"/>
			<circle class="st34" cx="85.5" cy="86.1" r="41.3"/>
			<circle class="st35" cx="85.5" cy="86.1" r="40.5"/>
			<circle class="st36" cx="85.5" cy="86.1" r="39.7"/>
			<circle class="st36" cx="85.5" cy="86.1" r="38.9"/>
			<circle class="st37" cx="85.5" cy="86.1" r="38.1"/>
			<circle class="st38" cx="85.5" cy="86.1" r="37.4"/>
			<circle class="st39" cx="85.5" cy="86.1" r="36.6"/>
			<circle class="st40" cx="85.5" cy="86.1" r="35.8"/>
			<circle class="st41" cx="85.5" cy="86.1" r="35"/>
			<circle class="st42" cx="85.5" cy="86.1" r="34.2"/>
			<circle class="st42" cx="85.5" cy="86.1" r="33.4"/>
			<circle class="st43" cx="85.5" cy="86.1" r="32.6"/>
			<circle class="st44" cx="85.5" cy="86.1" r="31.8"/>
			<circle class="st45" cx="85.5" cy="86.1" r="31"/>
			<circle class="st46" cx="85.5" cy="86.1" r="30.2"/>
			<circle class="st46" cx="85.5" cy="86.1" r="29.4"/>
			<circle class="st47" cx="85.5" cy="86.1" r="28.6"/>
			<circle class="st48" cx="85.5" cy="86.1" r="27.8"/>
			<circle class="st49" cx="85.5" cy="86.1" r="27"/>
			<circle class="st49" cx="85.5" cy="86.1" r="26.2"/>
			<circle class="st50" cx="85.5" cy="86.1" r="25.4"/>
			<circle class="st51" cx="85.5" cy="86.1" r="24.6"/>
			<circle class="st52" cx="85.5" cy="86.1" r="23.8"/>
			<circle class="st53" cx="85.5" cy="86.1" r="23"/>
			<circle class="st54" cx="85.5" cy="86.1" r="22.3"/>
			<circle class="st55" cx="85.5" cy="86.1" r="21.5"/>
			<circle class="st56" cx="85.5" cy="86.1" r="20.7"/>
			<circle class="st57" cx="85.5" cy="86.1" r="19.9"/>
			<circle class="st58" cx="85.5" cy="86.1" r="19.1"/>
			<circle class="st59" cx="85.5" cy="86.1" r="18.3"/>
			<circle class="st60" cx="85.5" cy="86.1" r="17.5"/>
			<circle class="st61" cx="85.5" cy="86.1" r="16.7"/>
			<circle class="st62" cx="85.5" cy="86.1" r="15.9"/>
			<circle class="st63" cx="85.5" cy="86.1" r="15.1"/>
			<circle class="st64" cx="85.5" cy="86.1" r="14.3"/>
			<circle class="st65" cx="85.5" cy="86.1" r="13.5"/>
			<circle class="st66" cx="85.5" cy="86.1" r="12.7"/>
			<circle class="st67" cx="85.5" cy="86.1" r="11.9"/>
			<circle class="st68" cx="85.5" cy="86.1" r="11.1"/>
			<circle class="st69" cx="85.5" cy="86.1" r="10.3"/>
			<circle class="st70" cx="85.5" cy="86.1" r="9.5"/>
			<circle class="st71" cx="85.5" cy="86.1" r="8.7"/>
			<circle class="st71" cx="85.5" cy="86.1" r="7.9"/>
			<circle class="st72" cx="85.5" cy="86.1" r="7.2"/>
			<circle class="st73" cx="85.5" cy="86.1" r="6.4"/>
			<circle class="st74" cx="85.5" cy="86.1" r="5.6"/>
			<circle class="st75" cx="85.5" cy="86.1" r="4.8"/>
			<circle class="st76" cx="85.5" cy="86.1" r="4"/>
			<circle class="st77" cx="85.5" cy="86.1" r="3.2"/>
			<circle class="st77" cx="85.5" cy="86.1" r="2.4"/>
			<circle class="st78" cx="85.5" cy="86.1" r="1.6"/>
			<circle class="st79" cx="85.5" cy="86.1" r="0.8"/>
		</g>
	</g>
	<path class="st0" d="M129.8,95.6l18,34.7h-22.2L109,98.7H97.5v31.6H77.4l0-43.6c0-0.1,0-0.2,0-0.3c0-0.1,0-0.2,0-0.3v-0.5l0,0
		c0.3-3.4,2.9-6.1,6.3-6.6l0-0.1l0.4,0c0.3,0,0.5,0,0.8,0c0.2,0,0.5,0,0.7,0l1.5,0c0.2,0,0.3,0,0.5,0l32.8,0c1.8-0.1,3.5-0.8,4.9-2
		c2-1.7,3.1-4.1,3.1-6.7c0-3.5-2.1-6.6-5.2-8c-1-0.4-2.1-0.7-3.3-0.7l-2.7,0l-73.6,0v17.5h25.7v19.7H43.6v31.6H23.5V50.8
		c0-5.2,4.3-9.5,9.5-9.5h87.1c15.4,0.1,27.9,12.6,27.9,28C148.1,81.1,140.5,91.6,129.8,95.6z"/>
</g>
</svg>
