<?xml version="1.0" encoding="utf-8"?>
<!-- Generator: Adobe Illustrator 20.0.0, SVG Export Plug-In . SVG Version: 6.00 Build 0)  -->
<svg version="1.1" id="Layer_1" xmlns="http://www.w3.org/2000/svg" xmlns:xlink="http://www.w3.org/1999/xlink" x="0px" y="0px"
	 viewBox="453.33334 71.66666 89.5 66.83334" enable-background="new 453.33334 71.66666 89.5 66.83334" xml:space="preserve">
<g>
	<path fill="#274784" d="M479.5596,135.37062l-22.418-22.54781c-2.60941-2.6241-3.0928-6.8033-0.77151-9.6226
		c2.60742-3.2075,7.43851-3.40141,10.24121-0.4858l17.7803,17.8837l45.31842-45.583c2.60925-2.625,6.76459-3.1108,9.56635-0.7773
		c3.19043,2.624,3.38281,7.4839,0.48346,10.3018l-50.34482,50.83101C486.71091,138.09331,482.26459,138.09331,479.5596,135.37062z"
		/>
	<path fill="#307DBD" d="M480.9707,110.376L467.5,96.82571c-1.56741-1.5772-1.85739-4.0884-0.46481-5.78271
		c1.5683-1.92779,4.47263-2.044,6.15521-0.291l10.68561,10.74561l27.2334-27.39162c1.56741-1.57718,4.06436-1.86918,5.74899-0.46728
		c1.91699,1.5771,2.0332,4.497,0.29102,6.1909L486.8945,110.376C485.2695,112.01071,482.59769,112.01071,480.9707,110.376z"/>
</g>
</svg>
