<?xml version="1.0" encoding="utf-8"?>
<!-- Generator: Adobe Illustrator 20.0.0, SVG Export Plug-In . SVG Version: 6.00 Build 0)  -->
<svg version="1.1" id="Layer_1" xmlns="http://www.w3.org/2000/svg" xmlns:xlink="http://www.w3.org/1999/xlink" x="0px" y="0px"
	 viewBox="193.66667 168.98828 90.66666 65.74597" enable-background="new 193.66667 168.98828 90.66666 65.74597"
	 xml:space="preserve">
<path fill="#A6A6A6" d="M253.5728,208.34312l0.2231-7.07521l-8.39549-2.03459c-0.4595-2.04691-1.1826-4.03711-2.24121-5.84131
	l4.94582-7.12259l-4.82231-5.13521l-7.4194,4.4873c-1.7363-1.104-3.67429-2.01761-5.689-2.6055l-1.50191-8.50591l-7.0752-0.2231
	l-2.03519,8.395c-2.04642,0.4595-4.03711,1.1841-5.84032,2.2417l-7.12309-4.9458l-5.1357,4.8223l4.48779,7.41939
	c-1.104,1.73631-2.01759,3.67432-2.606,5.68851l-8.5058,1.50241l-0.22369,7.0752l8.396,2.0347
	c0.4595,2.04691,1.18311,4.0376,2.2417,5.84081l-4.9463,7.12309l4.82181,5.13521l7.41989-4.4873
	c1.7359,1.104,3.67531,2.01711,5.68851,2.606l1.5025,8.5058l7.0761,0.22321l2.03419-8.39511
	c2.04741-0.46039,4.03711-1.18399,5.84131-2.2421l7.12259,4.9458l5.13521-4.82179l-4.48781-7.41991
	c1.10501-1.7359,2.01761-3.6748,2.60551-5.68851L253.5728,208.34312z M223.90041,213.57172
	c-5.37161-0.1685-9.55861-4.62849-9.38921-10c0.16901-5.3716,4.6284-9.55911,10-9.3902
	c5.37109,0.16901,9.55859,4.62939,9.38969,10.00101C233.7314,209.55412,229.272,213.74112,223.90041,213.57172z"/>
<path fill="#B5B5B5" d="M279.73929,196.34172l1.55862-3.66701l-3.98932-2.7793c0.17682-1.168,0.20309-2.3604,0.01559-3.5215
	l4.0459-2.729l-1.48239-3.6772l-4.80661,0.84131c-0.6875-0.93361-1.5166-1.80771-2.45319-2.5269l0.94629-4.76952l-3.66699-1.55908
	l-2.7793,3.9893c-1.16751-0.1763-2.35931-0.20171-3.5224-0.01422l-2.72809-4.04738l-3.6777,1.4825l0.84229,4.80809
	c-0.93408,0.6855-1.80859,1.5166-2.52779,2.45311l-4.76961-0.9458l-1.56,3.666l3.9912,2.7793
	c-0.17679,1.1684-0.2027,2.35989-0.01559,3.522l-4.0459,2.7285l1.4814,3.67767l4.80659-0.84178
	c0.688,0.93361,1.5186,1.80861,2.45409,2.5269l-0.94528,4.77l3.66699,1.5591l2.7793-3.98979
	c1.16751,0.1763,2.35941,0.2027,3.52051,0.0152l2.72949,4.04729l3.67581-1.4839l-0.83981-4.80708
	c0.93362-0.6855,1.80862-1.5166,2.52631-2.4541L279.73929,196.34172z M263.10449,193.03452
	c-2.78268-1.18449-4.06891-4.37791-2.88669-7.1611c1.18451-2.78419,4.3764-4.07219,7.16159-2.88669
	c2.7847,1.18309,4.07181,4.377,2.88821,7.1606C269.082,192.93102,265.88959,194.21812,263.10449,193.03452z"/>
</svg>
