<?xml version="1.0" encoding="utf-8"?>
<!-- Generator: Adobe Illustrator 20.0.0, SVG Export Plug-In . SVG Version: 6.00 Build 0)  -->
<svg version="1.1" id="Layer_1" xmlns="http://www.w3.org/2000/svg" xmlns:xlink="http://www.w3.org/1999/xlink" x="0px" y="0px"
	 viewBox="193.66667 71.66666 90.66666 65.74597" enable-background="new 193.66667 71.66666 90.66666 65.74597"
	 xml:space="preserve">
<path fill="#274784" d="M253.5728,110.91022l0.2231-7.07522l-8.39549-2.03468c-0.4595-2.0469-1.1826-4.0371-2.24121-5.84132
	l4.94582-7.12258l-4.82231-5.1352l-7.4194,4.4873c-1.7363-1.104-3.67429-2.0176-5.689-2.60551l-1.50191-8.50588l-7.0752-0.22312
	l-2.03519,8.395c-2.04642,0.45952-4.03711,1.18411-5.84032,2.24171l-7.12309-4.9458l-5.1357,4.8223l4.48779,7.4194
	c-1.104,1.73631-2.01759,3.6743-2.606,5.6885l-8.5058,1.5024l-0.22369,7.0752l8.396,2.03471
	c0.4595,2.0469,1.18311,4.03758,2.2417,5.8408l-4.9463,7.1231l4.82181,5.13519l7.41989-4.4873
	c1.7359,1.104,3.67531,2.01711,5.68851,2.606l1.5025,8.50579l7.0761,0.22321l2.03419-8.395
	c2.04741-0.4605,4.03711-1.1841,5.84131-2.24222l7.12259,4.94582l5.13521-4.82182l-4.48781-7.41988
	c1.10501-1.7359,2.01761-3.6748,2.60551-5.6885L253.5728,110.91022z M223.90041,116.13872
	c-5.37161-0.1685-9.55861-4.6284-9.38921-10c0.16901-5.3716,4.6284-9.5591,10-9.39021
	c5.37109,0.16901,9.55859,4.6294,9.38969,10.001C233.7314,112.12112,229.272,116.30811,223.90041,116.13872z"/>
<path fill="#307DBD" d="M279.73929,98.90871l1.55862-3.667l-3.98932-2.7793c0.17682-1.168,0.20309-2.36031,0.01559-3.5215
	l4.0459-2.729l-1.48239-3.6772l-4.80661,0.84129c-0.6875-0.93359-1.5166-1.80759-2.45319-2.52689l0.94629-4.7695l-3.66699-1.5591
	l-2.7793,3.9893c-1.16751-0.1763-2.35931-0.20171-3.5224-0.01421l-2.72809-4.04739l-3.6777,1.4825l0.84229,4.8081
	c-0.93408,0.6855-1.80859,1.5166-2.52779,2.4531l-4.76961-0.9458l-1.56,3.666l3.9912,2.7793
	c-0.17679,1.1685-0.2027,2.3599-0.01559,3.522l-4.0459,2.7285l1.4814,3.6777l4.80659-0.8418
	c0.688,0.9336,1.5186,1.8086,2.45409,2.5269l-0.94528,4.77l3.66699,1.5591l2.7793-3.98981
	c1.16751,0.17632,2.35941,0.20272,3.52051,0.01522l2.72949,4.04729l3.67581-1.4838l-0.83981-4.80721
	c0.93362-0.68552,1.80862-1.51659,2.52631-2.45409L279.73929,98.90871z M263.10449,95.60162
	c-2.78268-1.18462-4.06891-4.378-2.88669-7.1612c1.18451-2.7842,4.3764-4.0722,7.16159-2.8867
	c2.7847,1.1831,4.07181,4.377,2.88821,7.1607C269.082,95.498,265.88959,96.78522,263.10449,95.60162z"/>
</svg>
