<?xml version="1.0" encoding="utf-8"?>
<!-- Generator: Adobe Illustrator 20.0.0, SVG Export Plug-In . SVG Version: 6.00 Build 0)  -->
<svg version="1.1" id="Layer_1" xmlns="http://www.w3.org/2000/svg" xmlns:xlink="http://www.w3.org/1999/xlink" x="0px" y="0px"
	 viewBox="74.16666 168.98828 57.33333 73.74597" enable-background="new 74.16666 168.98828 57.33333 73.74597"
	 xml:space="preserve">
<g>
	<path fill="#A6A6A6" d="M110.37238,190.22331c0,0.8282-0.8037,1.4976-1.7934,1.4976h-23.0615c-0.9912,0-1.794-0.6694-1.794-1.4976
		l0,0c0-0.82661,0.8028-1.49799,1.794-1.49799h23.0615C109.56868,188.72533,110.37238,189.3967,110.37238,190.22331
		L110.37238,190.22331z"/>
	<path fill="#A6A6A6" d="M110.37238,197.58083c0,0.82809-0.8037,1.49799-1.7934,1.49799h-23.0615
		c-0.9912,0-1.794-0.66989-1.794-1.49799l0,0c0-0.8262,0.8028-1.49712,1.794-1.49712h23.0615
		C109.56868,196.08371,110.37238,196.75462,110.37238,197.58083L110.37238,197.58083z"/>
	<path fill="#A6A6A6" d="M99.21668,206.06223c0,0.82669-0.8027,1.4971-1.7935,1.4971h-11.6831
		c-0.9902,0-1.7934-0.67041-1.7934-1.4971l0,0c0-0.82811,0.8032-1.498,1.7934-1.498h11.6831
		C98.41399,204.56422,99.21668,205.23412,99.21668,206.06223L99.21668,206.06223z"/>
	<path fill="#A6A6A6" d="M104.57168,214.11691c0,0.8271-0.8033,1.4971-1.7935,1.4971h-17.0381c-0.9902,0-1.7934-0.67-1.7934-1.4971
		l0,0c0-0.82721,0.8032-1.49809,1.7934-1.49809h17.0381C103.76838,212.61882,104.57168,213.2897,104.57168,214.11691
		L104.57168,214.11691z"/>
	<path fill="#A6A6A6" d="M99.21668,222.26682c0,0.82761-0.8027,1.4976-1.7935,1.4976h-11.6831c-0.9902,0-1.7934-0.67-1.7934-1.4976
		l0,0c0-0.82719,0.8032-1.4976,1.7934-1.4976h11.6831C98.41399,220.76921,99.21668,221.43962,99.21668,222.26682L99.21668,222.26682
		z"/>
	<g>
		<path fill="#A6A6A6" d="M111.37198,183.12471c4.872,0.08891,7.0166,3.2339,6.8286,8.83499c0,0,0,25.10201,0,36.61282h3.8672
			c0-13.563,0-33.76271,0-39.53181c0-10.26318-10.2632-10.26318-10.2632-10.26318h-28.2378v4.34718
			C83.56678,183.12471,107.07168,183.17892,111.37198,183.12471z"/>
		<path fill="#A6A6A6" d="M118.20058,237.05052H79.19808v-53.92581h4.4014v-4.34718h-8.3853v62.646h46.8536c0,0,0-8.07961,0-13.1635
			h-3.8672C118.20058,230.80592,118.20058,237.05052,118.20058,237.05052z"/>
		<path fill="#B5B5B5" d="M130.45248,180.5627c0-10.26367-10.26321-10.26367-10.26321-10.26367h-36.5898v8.4785h3.9839v-4.13031
			c0,0,27.03709-0.2061,30.4575,0c2.6055,0.1562,8.5435-0.23979,8.5435,8.83391c0,7.68269,0,45.0914,0,45.0914h-4.5166
			c0,1.5551,0,3.0244,0,4.3725h8.3847C130.45248,232.94502,130.45248,189.48701,130.45248,180.5627z"/>
	</g>
</g>
</svg>
