<?xml version="1.0" encoding="utf-8"?>
<!-- Generator: Adobe Illustrator 20.0.0, SVG Export Plug-In . SVG Version: 6.00 Build 0)  -->
<svg version="1.1" id="Layer_1" xmlns="http://www.w3.org/2000/svg" xmlns:xlink="http://www.w3.org/1999/xlink" x="0px" y="0px"
	 viewBox="0 0 415 346" enable-background="new 0 0 415 346" xml:space="preserve">
<path fill="#0071BC" d="M162.60001,332.96094c-0.28387,0-0.57217,0-0.86047-0.00888
	c-12.33484-0.23062-24.0443-5.47327-32.43163-14.5126L19.01286,199.57077c-17.06297-18.38916-15.98961-47.13054,2.39955-64.18907
	c18.38473-17.05411,47.12167-15.98962,64.18465,2.39511l78.24485,84.32579L330.18707,55.92598
	c17.74603-17.72829,46.50073-17.71498,64.229,0.03105c17.7283,17.74603,17.715,46.50071-0.03104,64.229L194.69897,319.67249
	C186.17413,328.18845,174.62436,332.96094,162.60001,332.96094z"/>
<path fill="#02BFE7" d="M169.8297,177.84619c-0.17297,0-0.34152,0-0.51451-0.00887
	c-7.40268-0.13306-14.42834-3.2822-19.46252-8.71112l-62.61894-67.48458c-10.2369-11.03527-9.58933-28.27567,1.4415-38.51256
	c11.03971-10.22359,28.26679-9.59377,38.51257,1.4415l43.38706,46.76241l93.37401-93.28086
	c10.64496-10.63608,27.90308-10.62278,38.53915,0.02218c10.63611,10.64496,10.62723,27.90309-0.02216,38.53917L189.0882,169.87135
	C183.97418,174.98093,177.0461,177.84619,169.8297,177.84619z"/>
</svg>
