<?xml version="1.0" encoding="utf-8"?>
<!-- Generator: Adobe Illustrator 20.0.0, SVG Export Plug-In . SVG Version: 6.00 Build 0)  -->
<svg version="1.1" id="Layer_1" xmlns="http://www.w3.org/2000/svg" xmlns:xlink="http://www.w3.org/1999/xlink" x="0px" y="0px"
	 viewBox="0 0 415 346" enable-background="new 0 0 415 346" xml:space="preserve">
<g>
	<path fill="#0070BB" d="M323.12186,310.68149H104.72502c-49.57733,0-89.9281-40.35077-89.9281-89.9281
		c0-35.93082,21.27379-67.04625,51.7917-81.29907c-0.2021-2.8119-0.40421-5.81712-0.40421-8.62903
		c0-56.80918,45.9658-102.77498,102.77498-102.77498c42.95178,0,79.68225,26.30006,95.14771,63.83015
		c8.8399-7.82938,20.47415-12.44267,33.32101-12.44267c28.29477,0,51.38748,23.08395,51.38748,51.38749
		c0,10.23708-3.00522,19.67451-8.22479,27.69722c34.11188,8.03149,59.6123,38.54062,59.6123,75.07776
		C400.20309,276.15662,365.66943,310.68149,323.12186,310.68149z"/>
</g>
</svg>
