<?xml version="1.0" encoding="utf-8"?>
<!-- Generator: Adobe Illustrator 20.0.0, SVG Export Plug-In . SVG Version: 6.00 Build 0)  -->
<svg version="1.1" id="Layer_1" xmlns="http://www.w3.org/2000/svg" xmlns:xlink="http://www.w3.org/1999/xlink" x="0px" y="0px"
	 viewBox="453.33334 168.44461 89.5 66.83334" enable-background="new 453.33334 168.44461 89.5 66.83334" xml:space="preserve">
<g>
	<path fill="#A6A6A6" d="M479.77628,232.13681l-22.418-22.54788c-2.60941-2.62401-3.0928-6.80321-0.77151-9.62251
		c2.60739-3.20749,7.43851-3.4014,10.24121-0.4859l17.7803,17.8838l45.31842-45.58299c2.60925-2.625,6.76459-3.11081,9.56635-0.7773
		c3.19043,2.62399,3.38281,7.48389,0.4834,10.3017l-50.34476,50.83109C486.92755,234.85942,482.48126,234.85942,479.77628,232.13681
		z"/>
	<path fill="#B5B5B5" d="M481.18735,207.14223l-13.47067-13.55031c-1.56741-1.57719-1.85742-4.08839-0.46481-5.7827
		c1.5683-1.9278,4.4726-2.04399,6.15521-0.29109l10.68561,10.74559l27.23337-27.3916
		c1.56738-1.57709,4.06439-1.86909,5.74902-0.46719c1.91699,1.5771,2.0332,4.49699,0.29102,6.19089l-30.25491,30.54642
		C485.48618,208.77692,482.81436,208.77692,481.18735,207.14223z"/>
</g>
</svg>
