<?xml version="1.0" encoding="utf-8"?>
<!-- Generator: Adobe Illustrator 20.0.0, SVG Export Plug-In . SVG Version: 6.00 Build 0)  -->
<svg version="1.1" id="Layer_1" xmlns="http://www.w3.org/2000/svg" xmlns:xlink="http://www.w3.org/1999/xlink" x="0px" y="0px"
	 viewBox="74.16666 63.66667 57.33333 73.74597" enable-background="new 74.16666 63.66667 57.33333 73.74597" xml:space="preserve"
	>
<g>
	<path fill="#274783" d="M110.30219,84.65622c0,0.8282-0.8037,1.4976-1.7934,1.4976H85.4473c-0.9912,0-1.794-0.6694-1.794-1.4976
		l0,0c0-0.8266,0.8028-1.498,1.794-1.498h23.0615C109.4985,83.15822,110.30219,83.82962,110.30219,84.65622L110.30219,84.65622z"/>
	<path fill="#274783" d="M110.30219,92.01372c0,0.8281-0.8037,1.498-1.7934,1.498H85.4473c-0.9912,0-1.794-0.6699-1.794-1.498l0,0
		c0-0.8262,0.8028-1.4971,1.794-1.4971h23.0615C109.4985,90.51662,110.30219,91.18752,110.30219,92.01372L110.30219,92.01372z"/>
	<path fill="#274783" d="M99.1465,100.49512c0,0.8267-0.8027,1.4971-1.7935,1.4971H85.6699c-0.9902,0-1.7934-0.6704-1.7934-1.4971
		l0,0c0-0.82812,0.8032-1.498,1.7934-1.498H97.353C98.3438,98.99712,99.1465,99.667,99.1465,100.49512L99.1465,100.49512z"/>
	<path fill="#274783" d="M104.5015,108.54982c0,0.82718-0.8033,1.4971-1.7935,1.4971H85.6699
		c-0.9902,0-1.7934-0.66992-1.7934-1.4971l0,0c0-0.8271,0.8032-1.498,1.7934-1.498h17.0381
		C103.6982,107.05182,104.5015,107.72272,104.5015,108.54982L104.5015,108.54982z"/>
	<path fill="#274783" d="M99.1465,116.69971c0,0.82761-0.8027,1.4976-1.7935,1.4976H85.6699c-0.9902,0-1.7934-0.67-1.7934-1.4976
		l0,0c0-0.8271,0.8032-1.4976,1.7934-1.4976H97.353C98.3438,115.20212,99.1465,115.87262,99.1465,116.69971L99.1465,116.69971z"/>
	<g>
		<path fill="none" d="M83.5293,77.55762h-4.4014v53.9258h39.00249c0,0,0-1.5591,0-4.1055H83.5293V77.55762z"/>
		<path fill="none" d="M121.9976,83.47362c0,5.7691,0,25.9688,0,39.5318h4.51659c0,0,0-37.4087,0-45.0913
			c0-8.834-8.5435-8.834-8.5435-8.834H87.5132v4.1303h24.2212C111.7344,73.21042,121.9976,73.21042,121.9976,83.47362z"/>
		<path fill="#274783" d="M111.3018,77.55762c4.872,0.08891,7.0166,3.2339,6.8286,8.835c0,0,0,25.10201,0,36.6128h3.8672
			c0-13.563,0-33.7627,0-39.5318c0-10.2632-10.2632-10.2632-10.2632-10.2632H83.4966v4.3472
			C83.4966,77.55762,107.0015,77.61182,111.3018,77.55762z"/>
		<path fill="#274783" d="M118.13039,131.48341H79.1279v-53.9258h4.4014v-4.3472H75.144v62.646h46.8536c0,0,0-8.0795,0-13.1635
			h-3.8672C118.13039,125.23882,118.13039,131.48341,118.13039,131.48341z"/>
		<path fill="#307DBD" d="M130.38229,74.99562c0-10.2637-10.2632-10.2637-10.2632-10.2637H83.5293v8.4785h3.9839v-4.1303
			c0,0,27.03709-0.20612,30.4575,0c2.6055,0.1562,8.5435-0.2398,8.5435,8.834c0,7.6826,0,45.0913,0,45.0913h-4.51659
			c0,1.5551,0,3.0244,0,4.3725h8.3847C130.38229,127.37791,130.38229,83.91992,130.38229,74.99562z"/>
	</g>
</g>
</svg>
