<?xml version="1.0" encoding="utf-8"?>
<!-- Generator: Adobe Illustrator 20.0.0, SVG Export Plug-In . SVG Version: 6.00 Build 0)  -->
<svg version="1.1" id="Layer_1" xmlns="http://www.w3.org/2000/svg" xmlns:xlink="http://www.w3.org/1999/xlink" x="0px" y="0px"
	 viewBox="0 0 90.6667 65.746" style="enable-background:new 0 0 90.6667 65.746;" xml:space="preserve">
<style type="text/css">
	.st0{fill:#0070BB;}
	.st1{fill:#02BEE7;}
</style>
<g>
	<path class="st0" d="M60.9135,38.6204l0.2231-7.0752l-8.3955-2.0347c-0.4595-2.0469-1.1826-4.0371-2.2412-5.8413l4.9458-7.1226
		l-4.8223-5.1352l-7.4194,4.4873c-1.7363-1.104-3.6743-2.0176-5.689-2.6055l-1.5019-8.5059l-7.0752-0.2231l-2.0352,8.395
		c-2.0464,0.4595-4.0371,1.1841-5.8403,2.2417l-7.1231-4.9458l-5.1357,4.8223l4.4878,7.4194
		c-1.104,1.7363-2.0176,3.6743-2.606,5.6885l-8.5058,1.5024l-0.2237,7.0752l8.396,2.0347c0.4595,2.0469,1.1831,4.0376,2.2417,5.8408
		l-4.9463,7.1231l4.8218,5.1352l7.4199-4.4873c1.7359,1.104,3.6753,2.0171,5.6885,2.606l1.5025,8.5058l7.0761,0.2232l2.0342-8.395
		c2.0474-0.4605,4.0371-1.1841,5.8413-2.2422l7.1226,4.9458l5.1352-4.8218l-4.4878-7.4199c1.105-1.7359,2.0176-3.6748,2.6055-5.6885
		L60.9135,38.6204z M31.2411,43.8489c-5.3716-0.1685-9.5586-4.6284-9.3892-10c0.169-5.3716,4.6284-9.5591,10-9.3902
		c5.3711,0.169,9.5586,4.6294,9.3897,10.001C41.0721,39.8313,36.6127,44.0183,31.2411,43.8489z"/>
	<path class="st1" d="M87.08,26.6189l1.5586-3.667l-3.9893-2.7793c0.1768-1.168,0.2031-2.3603,0.0156-3.5215l4.0459-2.729
		l-1.4824-3.6772l-4.8066,0.8413c-0.6875-0.9336-1.5166-1.8076-2.4532-2.5269l0.9463-4.7695l-3.667-1.5591L74.4686,6.22
		c-1.1675-0.1763-2.3593-0.2017-3.5224-0.0142l-2.7281-4.0474l-3.6777,1.4825l0.8423,4.8081
		c-0.9341,0.6855-1.8086,1.5166-2.5278,2.4531l-4.7696-0.9458l-1.56,3.666l3.9912,2.7793c-0.1768,1.1685-0.2027,2.3599-0.0156,3.522
		l-4.0459,2.7285l1.4814,3.6777l4.8066-0.8418c0.688,0.9336,1.5186,1.8086,2.4541,2.5269l-0.9453,4.77l3.667,1.5591l2.7793-3.9898
		c1.1675,0.1763,2.3594,0.2027,3.5205,0.0152l2.7295,4.0473l3.6758-1.4838l-0.8398-4.8072
		c0.9336-0.6855,1.8086-1.5166,2.5263-2.4541L87.08,26.6189z M70.4452,23.3118c-2.7827-1.1846-4.0689-4.378-2.8867-7.1612
		c1.1845-2.7842,4.3764-4.0722,7.1616-2.8867c2.7847,1.1831,4.0718,4.377,2.8882,7.1607
		C76.4227,23.2081,73.2303,24.4954,70.4452,23.3118z"/>
</g>
</svg>
