<?xml version="1.0" encoding="utf-8"?>
<!-- Generator: Adobe Illustrator 20.0.0, SVG Export Plug-In . SVG Version: 6.00 Build 0)  -->
<svg version="1.1" id="Layer_1" xmlns="http://www.w3.org/2000/svg" xmlns:xlink="http://www.w3.org/1999/xlink" x="0px" y="0px"
	 viewBox="0 0 415 346" enable-background="new 0 0 415 346" xml:space="preserve">
<g>
	<path fill="#0070BB" d="M248.89258,237.23285c0-45.64722,36.48804-82.74695,81.88513-83.7876
		c4.90063-7.79584,7.71667-16.89392,7.71667-26.74359c0-28.02716-22.86731-50.88568-50.88574-50.88568
		c-12.72144,0-24.24219,4.56818-32.99561,12.32111c-15.31445-37.16357-51.68628-63.20685-94.21875-63.20685
		c-56.25439,0-101.77136,45.51697-101.77136,101.77142c0,2.78442,0.20007,5.76031,0.40027,8.54474
		C28.80322,149.36005,7.7373,180.17169,7.7373,215.75165c0,49.0932,39.95679,89.04993,89.04993,89.04993h186.32581
		C262.36499,289.54034,248.89258,264.96429,248.89258,237.23285z"/>
</g>
<g>
	<path fill="#02BEE7" d="M401.09866,220.14055c0,3.11552-2.58191,5.69743-5.69745,5.69743H355.5192
		c-2.31509,0-4.3634-1.42436-5.25412-3.56296c-0.88666-2.04417-0.44333-4.53989,1.24783-6.14075l12.28561-12.2856
		c-8.36966-7.74573-19.40741-12.19531-31.06909-12.19531c-25.10483,0-45.57947,20.47464-45.57947,45.57948
		s20.47464,45.57947,45.57947,45.57947c14.15329,0,27.23932-6.41165,35.96609-17.71622
		c0.44333-0.62393,1.24374-0.97693,2.04828-1.06723c0.80045,0,1.60086,0.26678,2.22479,0.80042l12.19531,12.28561
		c1.06723,0.98105,1.06723,2.67221,0.17651,3.82974c-12.99576,15.66797-32.22665,24.65744-52.61099,24.65744
		c-37.65726,0-68.3692-30.71198-68.3692-68.36923s30.71194-68.36922,68.3692-68.36922
		c17.53564,0,34.54175,7.03148,47.09415,18.87378l11.57138-11.48518c1.60086-1.69116,4.09659-2.13448,6.23105-1.24785
		c2.04831,0.89073,3.47266,2.93903,3.47266,5.25412V220.14055z"/>
</g>
</svg>
