<?xml version="1.0" encoding="utf-8"?>
<!-- Generator: Adobe Illustrator 20.0.0, SVG Export Plug-In . SVG Version: 6.00 Build 0)  -->
<svg version="1.1" id="Layer_1" xmlns="http://www.w3.org/2000/svg" xmlns:xlink="http://www.w3.org/1999/xlink" x="0px" y="0px"
	 viewBox="63.022 314.9487 178.7739 127.062" enable-background="new 63.022 314.9487 178.7739 127.062" xml:space="preserve">
<g>
	<g>
		<path fill="#274784" d="M241.7959,388.40619c0-14.7753-10.46881-27.54288-25.5034-31.8847
			c-0.15041-22.94919-20.5806-41.57278-45.67039-41.57278c-17.61531,0-33.5376,9.32281-41.08551,23.63629
			c-1.39059-0.21201-2.89839-0.35059-4.4521-0.35059c-12.084,0-22.6704,6.70209-27.08939,16.72168
			c-19.4253,0.7597-34.9731,15.4765-34.9731,33.4501c0,18.46292,16.4023,33.4805,36.5537,33.4805h55.0473
			c-1.07811-3.23441-1.67041-6.6904-1.67041-10.28708c0-0.01462,0.00101-0.02832,0.00101-0.043H99.5757
			c-13.9946,0-25.3745-10.39163-25.3745-23.15042c0-12.7597,11.3857-23.14548,25.38029-23.14548h6.8882l1.0279-3.96481
			c1.9384-7.4971,9.1674-12.7319,17.5869-12.7319c1.7881,0,3.91601,0.34619,6.00001,0.9819l5.1904,1.58591l1.82669-4.7641
			c4.8325-12.61432,17.9052-21.0889,32.52051-21.0889c19.0229,0,34.49699,14.12259,34.49699,31.48099
			c0,1.0957-0.06641,2.17969-0.18401,3.24512l-0.53079,4.80557l5.14549,0.81061c12.2124,1.93359,21.0728,11.5137,21.0728,22.7851
			c0,8.58112-5.149,16.08112-12.77589,20.07922c0.0976,1.0253,0.15179,2.06339,0.15179,3.1142c0,2.957-0.40179,5.81927-1.1416,8.543
			C231.334,415.68549,241.7959,403.14841,241.7959,388.40619z"/>
	</g>
	<circle fill="#307DBD" cx="185.21054" cy="411.91211" r="30.0985"/>
	<path fill="#FFFFFF" d="M178.36909,426.52438l-8.1543-10.36618c-1.4111-1.87012,0.3257-4.12302,0.3257-4.12302
		c1.7574-2.129,3.68359-0.75098,4.6304,0.49701l6.3481,6.62799l14.95219-18.49521c1.71631-2.40039,4.123-0.69629,4.123-0.69629
		c1.07671,1.125,3.27251,2.29401,1.0293,5.48251l-17.5815,21.77829C183.12939,428.39648,180.3618,429.13278,178.36909,426.52438z"/>
</g>
</svg>
